<svg width="24" height="24" viewBox="0 0 24 24" fill="none" xmlns="http://www.w3.org/2000/svg">
<circle cx="7.5" cy="7" r="3" fill="black"/>
<circle cx="17" cy="7" r="3" fill="black"/>
<path d="M1 16C1 13.7909 2.79086 12 5 12H10C12.2091 12 14 13.7909 14 16V19C14 19.5523 13.5523 20 13 20H2C1.44772 20 1 19.5523 1 19V16Z" fill="black"/>
<path d="M15.8292 20C15.9398 19.6872 16 19.3506 16 19V16C16 14.4633 15.4222 13.0615 14.4722 12H19C21.2091 12 23 13.7909 23 16V19C23 19.5523 22.5522 20 22 20H15.8292Z" fill="black"/>
</svg>