<svg width="24" height="24" viewBox="0 0 24 24" fill="none" xmlns="http://www.w3.org/2000/svg">
<path d="M10.9999 2C10.4476 2 9.9999 2.44772 9.9999 3V7H9.41412C8.52321 7 8.07704 8.07714 8.70701 8.7071L11.2928 11.2929C11.6833 11.6834 12.3165 11.6834 12.707 11.2929L15.2928 8.70711C15.9228 8.07714 15.4766 7 14.5857 7H13.9999V3C13.9999 2.44772 13.5522 2 12.9999 2H10.9999Z" fill="black"/>
<path d="M6.58564 7H4C3.44772 7 3 7.44772 3 8V21C3 21.5523 3.44772 22 4 22H19.99C20.5423 22 20.99 21.5523 20.99 21V8C20.99 7.44772 20.5423 7 19.99 7H17.4144C17.4168 7.3349 17.4238 9 17.4238 9H18.99V16H15.99C15.4377 16 14.99 16.4477 14.99 17C14.99 17.5523 14.5423 18 13.99 18H9.99C9.43772 18 8.99 17.5523 8.99 17C8.99 16.4477 8.54228 16 7.99 16H4.99V9H6.57615V8C6.57863 7.6581 6.58564 7 6.58564 7Z" fill="black"/>
</svg>
