<svg width="24" height="24" viewBox="0 0 24 24" fill="none" xmlns="http://www.w3.org/2000/svg">
<path fill-rule="evenodd" clip-rule="evenodd" d="M8 6V4C8 3.44772 8.44772 3 9 3H15C15.5523 3 16 3.44772 16 4V6H22C22.5523 6 23 6.44772 23 7V11H14C14 10.4477 13.5523 10 13 10H11C10.4477 10 10 10.4477 10 11H1V7C1 6.44772 1.44772 6 2 6H8ZM10 6V5H14V6H10Z" fill="black"/>
<path d="M13.9057 13H23V19C23 19.5523 22.5075 20 21.9 20H2.1C1.4925 20 1 19.5523 1 19V13H10.0943C10.4747 13.5978 11.1857 14 12 14C12.8143 14 13.5253 13.5978 13.9057 13Z" fill="black"/>
</svg>