<svg width="24" height="24" viewBox="0 0 24 24" fill="none" xmlns="http://www.w3.org/2000/svg">
<path fill-rule="evenodd" clip-rule="evenodd" d="M7.61144 9.46427C7.72812 9.13767 8.07635 8.94598 8.4304 9.01347L10.7747 9.4603C11.1288 9.52778 11.3821 9.83412 11.3704 10.1807L11.3304 11.372C11.8496 11.6859 12.3108 12.0735 12.7011 12.5165L13.9167 12.3039C14.2699 12.2422 14.6206 12.4395 14.7414 12.768L15.5416 14.9432C15.6624 15.2717 15.517 15.6326 15.1997 15.7918L14.1081 16.3395C14.1001 16.6255 14.0691 16.9142 14.014 17.2037C13.9588 17.4932 13.8813 17.7731 13.7836 18.042L14.5972 18.9528C14.8337 19.2176 14.8362 19.6066 14.603 19.8676L13.0588 21.596C12.8256 21.8571 12.4269 21.9115 12.1212 21.7242L11.069 21.0794C10.5431 21.3478 9.97167 21.5386 9.37347 21.6394L8.97246 22.7619C8.85578 23.0885 8.50755 23.2802 8.1535 23.2127L5.80917 22.7659C5.45513 22.6984 5.20182 22.3921 5.21345 22.0455L5.25345 20.8541C4.73429 20.5403 4.27307 20.1527 3.88279 19.7096L2.66723 19.9222C2.314 19.984 1.96329 19.7867 1.84245 19.4582L1.04231 17.2829C0.92147 16.9544 1.06686 16.5936 1.38424 16.4344L2.47579 15.8867C2.48384 15.6007 2.51476 15.312 2.56994 15.0225C2.62512 14.733 2.70257 14.4531 2.80028 14.1842L1.98672 13.2734C1.75017 13.0086 1.7477 12.6196 1.9809 12.3586L3.52508 10.6302C3.75829 10.3691 4.15699 10.3146 4.46273 10.502L5.51487 11.1468C6.04077 10.8784 6.61223 10.6876 7.21043 10.5868L7.61144 9.46427ZM7.7743 18.0449C8.84124 18.3308 9.93791 17.6977 10.2238 16.6307C10.5097 15.5638 9.87651 14.4671 8.80958 14.1812C7.74265 13.8954 6.64597 14.5285 6.36009 15.5955C6.07421 16.6624 6.70737 17.7591 7.7743 18.0449Z" fill="#C2D6F8"/>
<path fill-rule="evenodd" clip-rule="evenodd" d="M12.3024 6.48421C12.0715 6.38205 11.9509 6.11899 12.0188 5.86554L12.4685 4.18737C12.5364 3.93393 12.7724 3.76639 13.0234 3.79336L13.8862 3.88604C14.1417 3.52588 14.4478 3.21173 14.7903 2.95205L14.7009 2.05816C14.675 1.79841 14.837 1.55433 15.0819 1.48415L16.7039 1.01944C16.9489 0.949261 17.2031 1.0741 17.3018 1.31303L17.6411 2.13478C17.8483 2.1559 18.0563 2.19378 18.2635 2.24931C18.4708 2.30484 18.6698 2.37603 18.8598 2.46134L19.5645 1.91933C19.7694 1.76174 20.052 1.78073 20.229 1.96399L21.4014 3.17746C21.5785 3.36072 21.5967 3.6531 21.4443 3.86506L20.92 4.59449C21.0868 4.99064 21.1948 5.41573 21.236 5.85543L22.0296 6.20655C22.2604 6.30871 22.381 6.57178 22.3131 6.82522L21.8634 8.50339C21.7955 8.75684 21.5596 8.92438 21.3085 8.89741L20.4458 8.80472C20.1902 9.16488 19.8841 9.47903 19.5416 9.73871L19.631 10.6326C19.657 10.8924 19.495 11.1364 19.25 11.2066L17.628 11.6713C17.383 11.7415 17.1288 11.6167 17.0302 11.3777L16.6908 10.556C16.4836 10.5349 16.2757 10.497 16.0684 10.4414C15.8612 10.3859 15.6621 10.3147 15.4721 10.2294L14.7674 10.7714C14.5625 10.929 14.2799 10.91 14.1029 10.7268L12.9305 9.51331C12.7535 9.33005 12.7352 9.03767 12.8876 8.82571L13.412 8.09628C13.2451 7.70012 13.1372 7.27503 13.0959 6.83533L12.3024 6.48421ZM18.5723 6.72222C18.7805 5.9455 18.3195 5.14713 17.5428 4.93901C16.7661 4.73089 15.9677 5.19183 15.7596 5.96855C15.5515 6.74526 16.0124 7.54363 16.7891 7.75175C17.5658 7.95987 18.3642 7.49894 18.5723 6.72222Z" fill="#96A5BE"/>
</svg>
