<svg width="44" height="44" viewBox="0 0 44 44" fill="none" xmlns="http://www.w3.org/2000/svg">
<rect width="44" height="44" rx="4" fill="#ECF0FC"/>
<path d="M17.5 31H14C14 27.7479 17.0294 25.5 22 25.5C26.9706 25.5 30 27.7479 30 31H26.5" stroke="#4169E0" stroke-width="2" stroke-linecap="round" stroke-linejoin="round"/>
<path d="M23.9074 29.5834L23 25.5H21L20.0926 29.5834C20.0334 29.8495 20.0855 30.1282 20.2367 30.3551L21.168 31.7519C21.5638 32.3457 22.4362 32.3457 22.8321 31.7519L23.7633 30.3551C23.9145 30.1282 23.9666 29.8495 23.9074 29.5834Z" fill="#4169E0"/>
<path d="M18 17C18 14.7909 19.7909 13 22 13V13C24.2091 13 26 14.7909 26 17V18C26 20.2091 24.2091 22 22 22V22C19.7909 22 18 20.2091 18 18V17Z" stroke="#4169E0" stroke-width="2" stroke-linecap="round" stroke-linejoin="round"/>
</svg>
