<svg width="44" height="44" viewBox="0 0 44 44" fill="none" xmlns="http://www.w3.org/2000/svg">
<rect width="44" height="44" rx="4" fill="#ECF0FC"/>
<path d="M13 18C13 16.8954 13.8954 16 15 16H29C30.1046 16 31 16.8954 31 18V28C31 29.1046 30.1046 30 29 30H15C13.8954 30 13 29.1046 13 28V18Z" stroke="#4169E0" stroke-width="2" stroke-linejoin="round"/>
<path d="M26 16L25.4558 14.3675C25.1836 13.5509 24.4193 13 23.5585 13H20.4415C19.5807 13 18.8164 13.5509 18.5442 14.3675L18 16" stroke="#4169E0" stroke-width="2" stroke-linejoin="round"/>
<path d="M31 20L28.0972 24.1469C27.7229 24.6816 27.1113 25 26.4587 25H17.5413C16.8887 25 16.2771 24.6816 15.9028 24.1469L13 20" stroke="#4169E0" stroke-width="2" stroke-linecap="round" stroke-linejoin="round"/>
</svg>
