<svg width="44" height="44" viewBox="0 0 44 44" fill="none" xmlns="http://www.w3.org/2000/svg">
<rect width="44" height="44" rx="4" fill="#ECF0FC"/>
<path d="M21.5 31H14V16L24 13V23" stroke="#4169E0" stroke-width="2" stroke-linecap="round" stroke-linejoin="round"/>
<path d="M24 15L30 18V21.5" stroke="#4169E0" stroke-width="2" stroke-linecap="round" stroke-linejoin="round"/>
<path d="M18 23H20" stroke="#4169E0" stroke-width="2" stroke-linecap="round" stroke-linejoin="round"/>
<path d="M18 27H20" stroke="#4169E0" stroke-width="2" stroke-linecap="round" stroke-linejoin="round"/>
<path d="M18 19H20" stroke="#4169E0" stroke-width="2" stroke-linecap="round" stroke-linejoin="round"/>
<path d="M31.1586 31C30.7468 29.8348 29.6355 29 28.3293 29C27.0231 29 25.9118 29.8348 25.5 31" stroke="#4169E0" stroke-width="2" stroke-linecap="round" stroke-linejoin="round"/>
<path d="M26.3291 27C26.3291 25.8954 27.2245 25 28.3291 25V25C29.4337 25 30.3291 25.8954 30.3291 27V27C30.3291 28.1046 29.4337 29 28.3291 29V29C27.2245 29 26.3291 28.1046 26.3291 27V27Z" stroke="#4169E0" stroke-width="2" stroke-linecap="round" stroke-linejoin="round"/>
</svg>
