<svg width="40" height="40" viewBox="0 0 40 40" fill="none" xmlns="http://www.w3.org/2000/svg">
<circle cx="20" cy="20" r="20" fill="#ACBAD1"/>
<rect width="20" height="20" transform="translate(10 10)" fill="#ACBAD1"/>
<path d="M17.9167 27.4167C18.3309 27.4167 18.6667 27.0809 18.6667 26.6667C18.6667 26.2525 18.3309 25.9167 17.9167 25.9167V27.4167ZM26.75 17.9167C26.75 18.3309 27.0858 18.6667 27.5 18.6667C27.9142 18.6667 28.25 18.3309 28.25 17.9167H26.75ZM14.5 15.75H25.5V14.25H14.5V15.75ZM13.25 24.6667V17H11.75V24.6667H13.25ZM17.9167 25.9167H14.5V27.4167H17.9167V25.9167ZM26.75 17V17.9167H28.25V17H26.75ZM11.75 24.6667C11.75 26.1854 12.9812 27.4167 14.5 27.4167V25.9167C13.8096 25.9167 13.25 25.357 13.25 24.6667H11.75ZM25.5 15.75C26.1904 15.75 26.75 16.3096 26.75 17H28.25C28.25 15.4812 27.0188 14.25 25.5 14.25V15.75ZM14.5 14.25C12.9812 14.25 11.75 15.4812 11.75 17H13.25C13.25 16.3096 13.8096 15.75 14.5 15.75V14.25Z" fill="white"/>
<path d="M23.3334 15L22.9559 13.8675C22.6837 13.0509 21.9194 12.5 21.0586 12.5H18.9416C18.0807 12.5 17.3165 13.0509 17.0442 13.8675L16.6667 15" stroke="white" stroke-width="1.5" stroke-linejoin="round"/>
<path d="M12.5 18.3333L14.819 20.9837C15.1988 21.4177 15.7475 21.6667 16.3242 21.6667H19.5833" stroke="white" stroke-width="1.5" stroke-linecap="round" stroke-linejoin="round"/>
<path d="M25.4167 20.8333L25.9471 20.303C25.6542 20.0101 25.1793 20.0101 24.8864 20.303L25.4167 20.8333ZM27.9167 23.3333L28.4471 23.8637C28.74 23.5708 28.74 23.0959 28.4471 22.803L27.9167 23.3333ZM23.7501 27.5L23.7501 28.25C23.949 28.25 24.1398 28.171 24.2804 28.0303L23.7501 27.5ZM21.2501 25L20.7198 24.4697C20.5791 24.6103 20.5001 24.8011 20.5001 25L21.2501 25ZM21.2501 27.5H20.5001C20.5001 27.6989 20.5791 27.8897 20.7198 28.0303C20.8604 28.171 21.0512 28.25 21.2501 28.25L21.2501 27.5ZM24.8864 21.3637L27.3864 23.8637L28.4471 22.803L25.9471 20.303L24.8864 21.3637ZM27.3864 22.803L23.2198 26.9697L24.2804 28.0303L28.4471 23.8637L27.3864 22.803ZM21.7804 25.5303L25.9471 21.3637L24.8864 20.303L20.7198 24.4697L21.7804 25.5303ZM23.7501 26.75L21.2501 26.75L21.2501 28.25L23.7501 28.25L23.7501 26.75ZM22.0001 27.5L22.0001 25L20.5001 25L20.5001 27.5L22.0001 27.5Z" fill="white"/>
</svg>
