<svg width="40" height="40" viewBox="0 0 40 40" fill="none" xmlns="http://www.w3.org/2000/svg">
<circle cx="20" cy="20" r="20" fill="#FF7B31"/>
<rect width="20" height="20" transform="translate(10 10)" fill="#FF7B31"/>
<path d="M23.3334 27.0833L23.8637 27.6137C23.7231 27.7543 23.5323 27.8333 23.3334 27.8333L23.3334 27.0833ZM27.0834 23.3333L27.8334 23.3333C27.8334 23.5323 27.7544 23.723 27.6137 23.8637L27.0834 23.3333ZM14.9167 27.0833L14.9167 27.8333L14.9167 27.0833ZM25.0834 13.6667L14.9168 13.6667L14.9168 12.1667L25.0834 12.1667L25.0834 13.6667ZM13.6667 14.9167L13.6667 25.0833L12.1667 25.0833L12.1667 14.9167L13.6667 14.9167ZM14.9167 26.3333L23.3334 26.3333L23.3334 27.8333L14.9167 27.8333L14.9167 26.3333ZM26.3334 23.3333L26.3334 14.9167L27.8334 14.9167L27.8334 23.3333L26.3334 23.3333ZM22.8031 26.553L26.5531 22.803L27.6137 23.8637L23.8637 27.6137L22.8031 26.553ZM14.9168 13.6667C14.2264 13.6667 13.6667 14.2263 13.6667 14.9167L12.1667 14.9167C12.1667 13.3979 13.398 12.1667 14.9168 12.1667L14.9168 13.6667ZM25.0834 12.1667C26.6022 12.1667 27.8334 13.3979 27.8334 14.9167L26.3334 14.9167C26.3334 14.2263 25.7738 13.6667 25.0834 13.6667L25.0834 12.1667ZM13.6667 25.0833C13.6667 25.7737 14.2264 26.3333 14.9167 26.3333L14.9167 27.8333C13.398 27.8333 12.1667 26.6021 12.1667 25.0833L13.6667 25.0833Z" fill="white"/>
<path d="M22.8333 26.6667C22.8333 27.0809 22.4975 27.4167 22.0833 27.4167C21.669 27.4167 21.3333 27.0809 21.3333 26.6667L22.8333 26.6667ZM26.6666 21.3333C27.0808 21.3333 27.4166 21.6691 27.4166 22.0833C27.4166 22.4975 27.0808 22.8333 26.6666 22.8333L26.6666 21.3333ZM21.3333 26.6667L21.3333 23.0833L22.8333 23.0833L22.8333 26.6667L21.3333 26.6667ZM23.0833 21.3333L26.6666 21.3333L26.6666 22.8333L23.0833 22.8333L23.0833 21.3333ZM21.3333 23.0833C21.3333 22.1168 22.1168 21.3333 23.0833 21.3333L23.0833 22.8333C22.9452 22.8333 22.8333 22.9453 22.8333 23.0833L21.3333 23.0833Z" fill="white"/>
<path d="M16.6667 16.6667H21.6667" stroke="white" stroke-width="1.5" stroke-linecap="round"/>
<path d="M16.6667 20H18.3334" stroke="white" stroke-width="1.5" stroke-linecap="round"/>
</svg>
