<svg width="40" height="40" viewBox="0 0 40 40" fill="none" xmlns="http://www.w3.org/2000/svg">
<circle cx="20" cy="20" r="20" fill="#4169E0"/>
<rect width="20" height="20" transform="translate(10 10)" fill="#4169E0"/>
<path d="M23.0303 25.303C22.7374 25.0101 22.2626 25.0101 21.9697 25.303C21.6768 25.5959 21.6768 26.0708 21.9697 26.3637L23.0303 25.303ZM24.1667 27.5L23.6363 28.0303C23.9292 28.3232 24.4041 28.3232 24.697 28.0303L24.1667 27.5ZM28.0303 24.697C28.3232 24.4041 28.3232 23.9292 28.0303 23.6363C27.7374 23.3434 27.2626 23.3434 26.9697 23.6363L28.0303 24.697ZM21.9697 26.3637L23.6363 28.0303L24.697 26.9697L23.0303 25.303L21.9697 26.3637ZM24.697 28.0303L28.0303 24.697L26.9697 23.6363L23.6363 26.9697L24.697 28.0303Z" fill="white"/>
<path d="M26.75 20.8333C26.75 21.2475 27.0858 21.5833 27.5 21.5833C27.9142 21.5833 28.25 21.2475 28.25 20.8333H26.75ZM19.1667 27.4167C19.5809 27.4167 19.9167 27.0809 19.9167 26.6667C19.9167 26.2525 19.5809 25.9167 19.1667 25.9167V27.4167ZM14.5 15.75H25.5V14.25H14.5V15.75ZM13.25 24.6667V17H11.75V24.6667H13.25ZM26.75 17V20.8333H28.25V17H26.75ZM19.1667 25.9167H14.5V27.4167H19.1667V25.9167ZM11.75 24.6667C11.75 26.1854 12.9812 27.4167 14.5 27.4167V25.9167C13.8096 25.9167 13.25 25.357 13.25 24.6667H11.75ZM25.5 15.75C26.1904 15.75 26.75 16.3096 26.75 17H28.25C28.25 15.4812 27.0188 14.25 25.5 14.25V15.75ZM14.5 14.25C12.9812 14.25 11.75 15.4812 11.75 17H13.25C13.25 16.3096 13.8096 15.75 14.5 15.75V14.25Z" fill="white"/>
<path d="M23.3334 15L22.9559 13.8675C22.6837 13.0509 21.9194 12.5 21.0586 12.5H18.9416C18.0807 12.5 17.3165 13.0509 17.0442 13.8675L16.6667 15" stroke="white" stroke-width="1.5" stroke-linejoin="round"/>
<path d="M27.5 18.3333L25.1809 20.9837C24.8012 21.4177 24.2525 21.6667 23.6758 21.6667H16.3242C15.7475 21.6667 15.1988 21.4177 14.819 20.9837L12.5 18.3333" stroke="white" stroke-width="1.5" stroke-linecap="round" stroke-linejoin="round"/>
</svg>
