<svg width="40" height="40" viewBox="0 0 40 40" fill="none" xmlns="http://www.w3.org/2000/svg">
<circle cx="20" cy="20" r="20" fill="#FFD831"/>
<path d="M16.6667 16.6667L23.3334 16.6667" stroke="white" stroke-width="1.5" stroke-linecap="round"/>
<path d="M26.3334 19.1667C26.3334 19.5809 26.6692 19.9167 27.0834 19.9167C27.4976 19.9167 27.8334 19.5809 27.8334 19.1667H26.3334ZM17.5001 27.8333C17.9143 27.8333 18.2501 27.4975 18.2501 27.0833C18.2501 26.6691 17.9143 26.3333 17.5001 26.3333V27.8333ZM14.9167 13.6667H25.0834V12.1667H14.9167V13.6667ZM13.6667 25.0833V14.9167H12.1667V25.0833H13.6667ZM26.3334 14.9167V19.1667H27.8334V14.9167H26.3334ZM17.5001 26.3333H14.9167V27.8333H17.5001V26.3333ZM12.1667 25.0833C12.1667 26.6021 13.398 27.8333 14.9167 27.8333V26.3333C14.2264 26.3333 13.6667 25.7737 13.6667 25.0833H12.1667ZM25.0834 13.6667C25.7738 13.6667 26.3334 14.2263 26.3334 14.9167H27.8334C27.8334 13.3979 26.6022 12.1667 25.0834 12.1667V13.6667ZM14.9167 12.1667C13.398 12.1667 12.1667 13.3979 12.1667 14.9167H13.6667C13.6667 14.2263 14.2264 13.6667 14.9167 13.6667V12.1667Z" fill="white"/>
<path d="M16.6667 20H19.1667" stroke="white" stroke-width="1.5" stroke-linecap="round" stroke-linejoin="round"/>
<path d="M20 24.5833C20.5223 22.8887 22.0039 21.6667 23.75 21.6667C25.4961 21.6667 26.9777 22.8887 27.5 24.5833C26.9777 26.2779 25.4961 27.5 23.75 27.5C22.0039 27.5 20.5223 26.2779 20 24.5833Z" stroke="white" stroke-width="1.5" stroke-linecap="round" stroke-linejoin="round"/>
<circle cx="23.7499" cy="24.5833" r="1.04167" fill="white"/>
</svg>
