<svg width="24" height="24" viewBox="0 0 24 24" fill="none" xmlns="http://www.w3.org/2000/svg">
<path d="M10.5839 20.0415C10.0319 18.4798 8.5426 17.361 6.79195 17.361C5.04129 17.361 3.55196 18.4798 3 20.0415" stroke="#60728F" stroke-width="2" stroke-linecap="round" stroke-linejoin="round"/>
<path d="M6.78986 16.361C5.86176 16.361 5.10938 15.6086 5.10938 14.6805H3.10938C3.10938 16.7132 4.75719 18.361 6.78986 18.361V16.361ZM8.47035 14.6805C8.47035 15.6086 7.71797 16.361 6.78986 16.361V18.361C8.82254 18.361 10.4704 16.7132 10.4704 14.6805H8.47035ZM6.78986 13C7.71797 13 8.47035 13.7524 8.47035 14.6805H10.4704C10.4704 12.6478 8.82254 11 6.78986 11V13ZM6.78986 11C4.75719 11 3.10938 12.6478 3.10938 14.6805H5.10938C5.10938 13.7524 5.86176 13 6.78986 13V11Z" fill="#60728F"/>
<path d="M21.0839 20.0415C20.5319 18.4798 19.0426 17.361 17.2919 17.361C15.5413 17.361 14.052 18.4798 13.5 20.0415" stroke="#60728F" stroke-width="2" stroke-linecap="round" stroke-linejoin="round"/>
<path d="M17.2899 16.361C16.3618 16.361 15.6094 15.6086 15.6094 14.6805H13.6094C13.6094 16.7132 15.2572 18.361 17.2899 18.361V16.361ZM18.9704 14.6805C18.9704 15.6086 18.218 16.361 17.2899 16.361V18.361C19.3225 18.361 20.9704 16.7132 20.9704 14.6805H18.9704ZM17.2899 13C18.218 13 18.9704 13.7524 18.9704 14.6805H20.9704C20.9704 12.6478 19.3225 11 17.2899 11V13ZM17.2899 11C15.2572 11 13.6094 12.6478 13.6094 14.6805H15.6094C15.6094 13.7524 16.3618 13 17.2899 13V11Z" fill="#60728F"/>
<path d="M15.5839 11.5415C15.0319 9.97984 13.5426 8.861 11.7919 8.861C10.0413 8.861 8.55196 9.97984 8 11.5415" stroke="#60728F" stroke-width="2" stroke-linecap="round" stroke-linejoin="round"/>
<path d="M11.7899 7.861C10.8618 7.861 10.1094 7.10862 10.1094 6.18051H8.10938C8.10938 8.21319 9.75719 9.861 11.7899 9.861V7.861ZM13.4704 6.18051C13.4704 7.10862 12.718 7.861 11.7899 7.861V9.861C13.8225 9.861 15.4704 8.21319 15.4704 6.18051H13.4704ZM11.7899 4.50002C12.718 4.50002 13.4704 5.2524 13.4704 6.18051H15.4704C15.4704 4.14783 13.8225 2.50002 11.7899 2.50002V4.50002ZM11.7899 2.50002C9.75719 2.50002 8.10938 4.14783 8.10938 6.18051H10.1094C10.1094 5.2524 10.8618 4.50002 11.7899 4.50002V2.50002Z" fill="#60728F"/>
</svg>
