<svg width="14" height="14" viewBox="0 0 24 24" fill="none" xmlns="http://www.w3.org/2000/svg">
<path d="M3 8C3 6.89543 3.89543 6 5 6H19C20.1046 6 21 6.89543 21 8V18C21 19.1046 20.1046 20 19 20H5C3.89543 20 3 19.1046 3 18V8Z" stroke="#60728F" stroke-width="2" stroke-linejoin="round"/>
<path d="M16 6L15.4558 4.36754C15.1836 3.55086 14.4193 3 13.5585 3H10.4415C9.58066 3 8.81638 3.55086 8.54415 4.36754L8 6" stroke="#60728F" stroke-width="2" stroke-linejoin="round"/>
<path d="M21 10L18.0972 14.1469C17.7229 14.6816 17.1113 15 16.4587 15H7.54131C6.88868 15 6.2771 14.6816 5.90285 14.1469L3 10" stroke="#60728F" stroke-width="2" stroke-linecap="round" stroke-linejoin="round"/>
</svg>
