<svg width="24" height="24" viewBox="0 0 24 24" fill="none" xmlns="http://www.w3.org/2000/svg">
<path d="M11.5 21H4V6L14 3V13" stroke="black" stroke-width="2" stroke-linecap="round" stroke-linejoin="round"/>
<path d="M14 5L20 8V11.5" stroke="black" stroke-width="2" stroke-linecap="round" stroke-linejoin="round"/>
<path d="M8 13H10" stroke="black" stroke-width="2" stroke-linecap="round" stroke-linejoin="round"/>
<path d="M8 17H10" stroke="black" stroke-width="2" stroke-linecap="round" stroke-linejoin="round"/>
<path d="M8 9H10" stroke="black" stroke-width="2" stroke-linecap="round" stroke-linejoin="round"/>
<path d="M21.1586 21C20.7468 19.8348 19.6355 19 18.3293 19C17.0231 19 15.9118 19.8348 15.5 21" stroke="black" stroke-width="2" stroke-linecap="round" stroke-linejoin="round"/>
<path d="M16.3291 17C16.3291 15.8954 17.2245 15 18.3291 15V15C19.4337 15 20.3291 15.8954 20.3291 17V17C20.3291 18.1046 19.4337 19 18.3291 19V19C17.2245 19 16.3291 18.1046 16.3291 17V17Z" stroke="black" stroke-width="2" stroke-linecap="round" stroke-linejoin="round"/>
</svg>
