<svg width="44" height="44" viewBox="0 0 44 44" fill="none" xmlns="http://www.w3.org/2000/svg">
<rect width="44" height="44" rx="4" fill="#ECF0FC"/>
<path d="M20.5839 30.0415C20.0319 28.4798 18.5426 27.361 16.7919 27.361C15.0413 27.361 13.552 28.4798 13 30.0415" stroke="#4169E0" stroke-width="2" stroke-linecap="round" stroke-linejoin="round"/>
<path d="M16.7918 26.361C15.8637 26.361 15.1113 25.6086 15.1113 24.6805H13.1113C13.1113 26.7132 14.7591 28.361 16.7918 28.361V26.361ZM18.4723 24.6805C18.4723 25.6086 17.7199 26.361 16.7918 26.361V28.361C18.8245 28.361 20.4723 26.7132 20.4723 24.6805H18.4723ZM16.7918 23C17.7199 23 18.4723 23.7524 18.4723 24.6805H20.4723C20.4723 22.6478 18.8245 21 16.7918 21V23ZM16.7918 21C14.7591 21 13.1113 22.6478 13.1113 24.6805H15.1113C15.1113 23.7524 15.8637 23 16.7918 23V21Z" fill="#4169E0"/>
<path d="M31.0839 30.0415C30.5319 28.4798 29.0426 27.361 27.2919 27.361C25.5413 27.361 24.052 28.4798 23.5 30.0415" stroke="#4169E0" stroke-width="2" stroke-linecap="round" stroke-linejoin="round"/>
<path d="M27.2918 26.361C26.3637 26.361 25.6113 25.6086 25.6113 24.6805H23.6113C23.6113 26.7132 25.2591 28.361 27.2918 28.361V26.361ZM28.9723 24.6805C28.9723 25.6086 28.2199 26.361 27.2918 26.361V28.361C29.3245 28.361 30.9723 26.7132 30.9723 24.6805H28.9723ZM27.2918 23C28.2199 23 28.9723 23.7524 28.9723 24.6805H30.9723C30.9723 22.6478 29.3245 21 27.2918 21V23ZM27.2918 21C25.2591 21 23.6113 22.6478 23.6113 24.6805H25.6113C25.6113 23.7524 26.3637 23 27.2918 23V21Z" fill="#4169E0"/>
<path d="M25.5839 21.5415C25.0319 19.9798 23.5426 18.861 21.7919 18.861C20.0413 18.861 18.552 19.9798 18 21.5415" stroke="#4169E0" stroke-width="2" stroke-linecap="round" stroke-linejoin="round"/>
<path d="M21.7918 17.861C20.8637 17.861 20.1113 17.1086 20.1113 16.1805H18.1113C18.1113 18.2132 19.7591 19.861 21.7918 19.861V17.861ZM23.4723 16.1805C23.4723 17.1086 22.7199 17.861 21.7918 17.861V19.861C23.8245 19.861 25.4723 18.2132 25.4723 16.1805H23.4723ZM21.7918 14.5C22.7199 14.5 23.4723 15.2524 23.4723 16.1805H25.4723C25.4723 14.1478 23.8245 12.5 21.7918 12.5V14.5ZM21.7918 12.5C19.7591 12.5 18.1113 14.1478 18.1113 16.1805H20.1113C20.1113 15.2524 20.8637 14.5 21.7918 14.5V12.5Z" fill="#4169E0"/>
</svg>
