<svg width="24" height="24" viewBox="0 0 24 24" fill="none" xmlns="http://www.w3.org/2000/svg">
<path d="M3 9.5H7V19H3V9.5Z" stroke="black" stroke-width="2" stroke-linecap="round" stroke-linejoin="round"/>
<path d="M15.9065 3.8092L16.9039 3.88045V3.88045L15.9065 3.8092ZM14.7129 2.75738L14.909 3.73796L14.7129 2.75738ZM20.2271 17.2586L21.2188 17.388L21.2198 17.3798L20.2271 17.2586ZM21.1716 9.51776L20.18 9.38842L20.179 9.39665L21.1716 9.51776ZM18.9753 7.27047L18.8688 6.27616L18.8592 6.27718L18.8497 6.27839L18.9753 7.27047ZM7 19H6V20H7V19ZM7 9.5L6.29289 8.79289L6 9.08579V9.5H7ZM13.5 3L13.3038 2.01943C13.1103 2.05815 12.9325 2.1533 12.7929 2.29289L13.5 3ZM15.6724 7.086L16.6699 7.15725L15.6724 7.086ZM16.2244 7.61878L16.331 8.61309L16.3405 8.61206L16.35 8.61086L16.2244 7.61878ZM14.909 3.73796L14.675 7.01475L16.6699 7.15725L16.9039 3.88045L14.909 3.73796ZM14.909 3.73796V3.73796L16.9039 3.88045C16.998 2.56303 15.8119 1.51777 14.5168 1.7768L14.909 3.73796ZM7.70711 10.2071L14.2071 3.70711L12.7929 2.29289L6.29289 8.79289L7.70711 10.2071ZM18.2439 18H7V20H18.2439V18ZM19.2355 17.1293C19.1706 17.6274 18.7462 18 18.2439 18V20C19.7508 20 21.0238 18.8822 21.2187 17.388L19.2355 17.1293ZM20.179 9.39665L19.2345 17.1375L21.2198 17.3798L22.1642 9.63888L20.179 9.39665ZM19.0819 8.26478C19.7252 8.19584 20.2637 8.74681 20.18 9.38843L22.1632 9.6471C22.4143 7.72226 20.7989 6.06936 18.8688 6.27616L19.0819 8.26478ZM16.35 8.61086L19.1009 8.26255L18.8497 6.27839L16.0988 6.6267L16.35 8.61086ZM14.675 7.01475C14.6084 7.94713 15.4015 8.71267 16.331 8.61309L16.1179 6.62447C16.4277 6.59128 16.6921 6.84646 16.6699 7.15725L14.675 7.01475ZM8 19V9.5H6V19H8ZM13.5 3C13.6962 3.98057 13.6962 3.98057 13.6962 3.98057C13.6962 3.98057 13.6962 3.98057 13.6962 3.98056C13.6962 3.98056 13.6963 3.98055 13.6963 3.98054C13.6964 3.98052 13.6966 3.98049 13.6968 3.98044C13.6972 3.98036 13.6978 3.98023 13.6987 3.98007C13.7003 3.97973 13.7028 3.97924 13.7061 3.97859C13.7126 3.97729 13.7221 3.97537 13.7344 3.97291C13.759 3.96799 13.7946 3.96089 13.8382 3.95215C13.9256 3.93468 14.0456 3.91067 14.1761 3.88456C14.4372 3.83234 14.7404 3.77169 14.909 3.73796L14.5168 1.7768C14.3481 1.81054 14.0449 1.87119 13.7838 1.92342C13.6533 1.94953 13.5333 1.97353 13.4459 1.99101C13.4022 1.99974 13.3667 2.00685 13.3421 2.01177C13.3298 2.01423 13.3203 2.01615 13.3138 2.01744C13.3105 2.01809 13.308 2.01859 13.3064 2.01892C13.3055 2.01909 13.3049 2.01922 13.3045 2.0193C13.3043 2.01934 13.3041 2.01938 13.304 2.0194C13.3039 2.01941 13.3039 2.01941 13.3039 2.01942C13.3039 2.01942 13.3039 2.01942 13.3038 2.01943C13.3038 2.01943 13.3038 2.01943 13.5 3Z" fill="black"/>
</svg>
